HIERARCHY
ROOT Hips
{
	OFFSET 0.00 0.00 0.00
	CHANNELS 6 Xposition Yposition Zposition Xrotation Yrotation Zrotation
	JOINT Spine
	{
		OFFSET 0.00000 7.50895 0.00000
		CHANNELS 3 Xrotation Yrotation Zrotation
		JOINT Head
		{
			OFFSET 0.00000 13.86115 0.00000
			CHANNELS 3 Xrotation Yrotation Zrotation
			End Site
			{
				OFFSET 0.00000 4.52755 0.00000
			}
		}
		JOINT LeftShoulder
		{
			OFFSET 0.00000 8.20478 0.00000
			CHANNELS 3 Xrotation Yrotation Zrotation
			JOINT LeftArm
			{
				OFFSET 6.63596 0.00000 0.00000
				CHANNELS 3 Xrotation Yrotation Zrotation
				JOINT LeftForeArm
				{
					OFFSET 10.27422 0.00000 0.00000
					CHANNELS 3 Yrotation Zrotation Xrotation
					JOINT LeftHand
					{
						OFFSET 8.52215 0.00000 0.00000
						CHANNELS 3 Xrotation Yrotation Zrotation
						JOINT LeftHandThumb1
						{
							OFFSET 0.00000 0.00000 0.00000
							CHANNELS 3 Xrotation Zrotation Yrotation
							End Site
							{
								OFFSET 0.00000 0.00000 3.93700
							}
						}
						End Site
						{
							OFFSET 3.93700 0.00000 0.00000
						}
					}
				}
			}
		}
		JOINT RightShoulder
		{
			OFFSET 0.00000 8.20478 0.00000
			CHANNELS 3 Xrotation Yrotation Zrotation
			JOINT RightArm
			{
				OFFSET -6.63596 0.00000 0.00000
				CHANNELS 3 Xrotation Yrotation Zrotation
				JOINT RightForeArm
				{
					OFFSET -10.27422 0.00000 0.00000
					CHANNELS 3 Yrotation Zrotation Xrotation
					JOINT RightHand
					{
						OFFSET -8.52215 0.00000 0.00000
						CHANNELS 3 Xrotation Yrotation Zrotation
						JOINT RightHandThumb1
						{
							OFFSET 0.00000 0.00000 0.00000
							CHANNELS 3 Xrotation Zrotation Yrotation
							End Site
							{
								OFFSET 0.00000 0.00000 3.93700
							}
						}
						End Site
						{
							OFFSET -3.93700 0.00000 0.00000
						}
					}
				}
			}
		}
	}
	JOINT LeftUpLeg
	{
		OFFSET 3.00056 0.00000 0.00000
		CHANNELS 3 Xrotation Yrotation Zrotation
		JOINT LeftLeg
		{
			OFFSET 0.00000 -16.49085 0.00000
			CHANNELS 3 Xrotation Yrotation Zrotation
			JOINT LeftFoot
			{
				OFFSET 0.00000 -14.55658 0.00000
				CHANNELS 3 Xrotation Yrotation Zrotation
				JOINT LeftToeBase
				{
					OFFSET 0.00000 -1.25038 4.66650
					CHANNELS 3 Xrotation Yrotation Zrotation
					End Site
					{
						OFFSET 0.00000 0.00000 2.95275
					}
				}
			}
		}
	}
	JOINT RightUpLeg
	{
		OFFSET -3.00056 0.00000 0.00000
		CHANNELS 3 Xrotation Yrotation Zrotation
		JOINT RightLeg
		{
			OFFSET 0.00000 -16.49085 0.00000
			CHANNELS 3 Xrotation Yrotation Zrotation
			JOINT RightFoot
			{
				OFFSET 0.00000 -14.55658 0.00000
				CHANNELS 3 Xrotation Yrotation Zrotation
				JOINT RightToeBase
				{
					OFFSET 0.00000 -1.25038 4.66650
					CHANNELS 3 Xrotation Yrotation Zrotation
					End Site
					{
						OFFSET 0.00000 0.00000 2.95275
					}
				}
			}
		}
	}
}
MOTION
Frames: 9
Frame Time: 0.008333
 -3.2242 10.0988 -1.5239 48.9515 -22.6445 21.2774 28.2467 13.1503 -23.2820 -59.8622 11.1685 5.2418 6.0392 -3.8123 9.0023 -38.4888 -56.6371 -77.0094 -23.7757 0.0000 33.2278 -33.8101 -7.5805 101.1437 33.1476 -0.0000 26.2537 -23.3485 -1.5813 -11.1816 -23.7446 45.8021 95.7519 22.7210 -0.0000 34.3758 1.7502 0.4221 -76.4451 32.8623 0.0000 -24.3270 -14.4275 14.8901 47.5429 84.4776 -0.0000 0.0000 -14.3228 3.7162 -45.7216 -3.8608 -0.0000 -0.0000 -89.4826 8.4727 -54.4771 4.1979 -0.0000 0.0000 17.1930 -2.4784 -20.0292 -5.2305 -0.0000 0.0000
 -3.2138 10.1265 -1.5200 48.7799 -22.5092 20.9646 28.5447 13.0263 -22.9946 -60.2502 11.1437 5.1764 5.9387 -3.8499 8.9814 -38.7208 -56.8480 -77.1242 -23.7146 0.0000 33.0511 -33.6678 -7.6320 101.2759 33.1476 -0.0000 26.2537 -23.3696 -1.4756 -11.2599 -23.7139 45.6985 95.5486 22.6924 -0.0000 34.2899 1.9024 0.4546 -76.5666 32.8623 0.0000 -24.3270 -14.9485 15.1022 47.8011 86.1221 0.0000 0.0000 -14.8691 2.2796 -46.2260 -3.8194 0.0000 0.0000 -88.8439 8.8664 -54.6216 4.8122 -0.0000 0.0000 17.0965 -2.5591 -19.9381 -5.5577 -0.0000 -0.0000
 -3.2054 10.1555 -1.5201 48.6174 -22.3255 20.6301 28.8063 12.9046 -22.6612 -60.6091 11.1219 5.0966 5.9620 -3.8854 8.9729 -39.0520 -56.9687 -77.2387 -23.7320 0.0000 32.9927 -33.6753 -7.6561 101.3073 33.1476 -0.0000 26.2537 -23.4920 -1.3836 -11.3045 -23.5200 45.5778 95.2936 22.7502 -0.0000 34.3029 1.7076 0.4024 -76.7438 32.8623 0.0000 -24.3270 -15.4838 15.2433 48.0481 87.7068 -0.0000 0.0000 -15.3619 0.9767 -46.5616 -4.2759 -0.0000 0.0000 -88.2659 9.2277 -54.7969 5.4970 0.0000 0.0000 16.8128 -2.5228 -20.3445 -5.5479 0.0000 -0.0000
 -3.1949 10.1858 -1.5239 48.4359 -22.1153 20.2730 29.0809 12.7510 -22.2796 -61.0157 11.1338 5.0581 5.8698 -3.9849 8.9892 -39.2642 -57.0165 -77.3689 -23.7625 0.0000 32.9308 -33.6286 -7.7231 101.4227 33.1476 -0.0000 26.2537 -23.4342 -1.3514 -11.3809 -23.6027 45.5516 95.0787 22.7518 -0.0000 34.2371 1.8473 0.4366 -76.7072 32.8623 0.0000 -24.3270 -16.0491 15.3416 48.3140 89.2674 0.0000 0.0000 -15.7134 -0.0074 -47.0149 -4.6418 0.0000 -0.0000 -87.5902 9.6342 -54.9957 6.1976 -0.0000 0.0000 16.3586 -2.3385 -21.5962 -4.4845 -0.0000 -0.0000
 -3.1881 10.2155 -1.5369 48.3288 -21.8686 19.8652 29.2033 12.6164 -21.8032 -61.2937 11.1901 5.0466 5.7602 -4.0527 8.9859 -39.4177 -57.0588 -77.4997 -23.7915 0.0000 32.8966 -33.6241 -7.7798 101.5058 33.1476 -0.0000 26.2537 -23.4036 -1.3040 -11.4535 -23.6258 45.5461 94.8783 22.7147 -0.0000 34.1666 2.4802 0.5927 -76.5671 32.8623 0.0000 -24.3270 -16.7854 15.4140 48.7312 90.7989 0.0000 -0.0000 -16.0722 -1.0160 -46.6784 -5.6959 0.0000 -0.0000 -86.9578 9.9892 -55.1786 6.9310 -0.0000 -0.0000 15.9792 -2.5462 -21.8355 -4.5345 0.0000 0.0000
 -3.1794 10.2435 -1.5393 48.1444 -21.6861 19.5696 29.4835 12.4368 -21.5444 -61.6024 11.1474 5.1324 5.7435 -4.1335 9.0845 -39.6981 -57.0468 -77.6328 -23.7965 0.0000 32.8457 -33.5029 -7.8645 101.6789 33.1476 -0.0000 26.2537 -23.4837 -1.2381 -11.4515 -23.5636 45.5017 94.6528 22.7036 -0.0000 34.1056 2.4519 0.5753 -76.8028 32.8623 0.0000 -24.3270 -17.3552 15.5843 48.9643 92.1892 -0.0000 0.0000 -16.4372 -1.5995 -47.2449 -5.2262 -0.0000 -0.0000 -86.2682 10.4604 -55.3515 7.6164 0.0000 0.0000 15.7837 -2.5544 -21.8968 -5.0276 0.0000 0.0000
 -3.1705 10.2738 -1.5444 47.9770 -21.4471 19.2784 29.7266 12.2060 -21.2833 -61.9513 11.0165 5.2770 5.7814 -4.1240 9.1700 -40.0452 -57.2226 -77.7315 -23.8151 0.0000 32.7059 -33.4210 -7.9401 101.8230 33.1476 -0.0000 26.2537 -23.5386 -1.2238 -11.4198 -23.5763 45.4950 94.4667 22.6721 -0.0000 33.9773 2.6133 0.6227 -76.6072 32.8623 0.0000 -24.3270 -17.9923 15.7201 49.1841 93.5038 -0.0000 0.0000 -16.7988 -2.5410 -46.7214 -6.2451 0.0000 0.0000 -85.4206 11.0083 -55.5847 8.2573 -0.0000 0.0000 15.4927 -2.5327 -21.6374 -5.0048 -0.0000 -0.0000
 -3.1623 10.3141 -1.5640 47.7742 -21.1156 18.8077 29.9441 11.9368 -20.6837 -62.2164 11.0024 5.1851 5.6784 -4.1835 9.1499 -40.2322 -57.2894 -77.7995 -23.8550 0.0000 32.6240 -33.3822 -7.9513 101.8561 33.1476 -0.0000 26.2537 -23.5579 -1.0820 -11.5015 -23.6036 45.3513 94.2348 22.6682 -0.0000 33.9603 2.7149 0.6445 -76.6550 32.8623 0.0000 -24.3270 -18.7687 15.6418 49.5617 94.8149 -0.0000 -0.0000 -17.1130 -3.6226 -46.1715 -7.8407 -0.0000 0.0000 -84.6044 11.3190 -55.8654 8.8623 0.0000 0.0000 15.3360 -2.6657 -20.4148 -5.8597 -0.0000 -0.0000
 -3.1524 10.3568 -1.5870 47.5579 -20.7116 18.3452 30.1510 11.5974 -20.0748 -62.4694 10.9715 5.1854 5.6036 -4.2243 9.1645 -40.5338 -57.3302 -77.9430 -23.8549 0.0000 32.5732 -33.3765 -7.9975 101.9250 33.1476 -0.0000 26.2537 -23.5902 -0.9293 -11.5823 -23.6236 45.1978 93.9971 22.6550 -0.0000 33.9966 3.0528 0.7607 -76.0217 32.8623 0.0000 -24.3270 -19.5043 15.4459 49.8600 96.0328 0.0000 -0.0000 -17.3270 -4.2304 -46.7452 -7.5705 -0.0000 0.0000 -83.7695 11.6305 -56.2239 9.4550 -0.0000 -0.0000 15.3123 -2.8583 -18.1665 -7.6644 -0.0000 0.0000
